<?xml version="1.0" encoding="utf-8"?>
<!-- Generator: Adobe Illustrator 16.0.0, SVG Export Plug-In . SVG Version: 6.00 Build 0)  -->
<!DOCTYPE svg PUBLIC "-//W3C//DTD SVG 1.1//EN" "http://www.w3.org/Graphics/SVG/1.1/DTD/svg11.dtd">
<svg version="1.1" id="Layer_1" xmlns="http://www.w3.org/2000/svg" xmlns:xlink="http://www.w3.org/1999/xlink" x="0px" y="0px"
	 width="270px" height="50px" viewBox="0 0 270 50" enable-background="new 0 0 270 50" xml:space="preserve">
<g>
	<g>
		<g>
			<path fill="#FFFFFF" d="M92.995,34.721h-9.237l-2.71,6.006h-3.982L88.36,16.474l11.293,24.253h-4.015L92.995,34.721z
				 M91.657,31.554l-2.384-5.32c-0.261-0.62-0.555-1.469-0.881-2.644c-0.294,1.175-0.588,2.023-0.849,2.644l-2.384,5.32H91.657z"/>
			<path fill="#FFFFFF" d="M118.615,17.387h3.787v19.945h8.487v3.395h-12.274V17.387z"/>
			<path fill="#FFFFFF" d="M158.273,40.727h-3.787V20.619h-6.202v-3.232h16.158v3.232h-6.169V40.727z"/>
			<path fill="#FFFFFF" d="M196.886,34.721h-9.237l-2.709,6.006h-3.983l11.295-24.253l11.294,24.253h-4.015L196.886,34.721z
				 M195.549,31.554l-2.383-5.32c-0.262-0.62-0.556-1.469-0.882-2.644c-0.294,1.175-0.587,2.023-0.849,2.644l-2.383,5.32H195.549z"
				/>
			<path fill="#FFFFFF" d="M222.574,17.387h3.787v23.34h-3.787V17.387z"/>
			<path fill="#FFFFFF" d="M252.146,40.727h-3.559v-23.34h5.289c2.514,0,4.375,0.196,5.811,1.307
				c1.403,1.109,2.252,2.938,2.252,5.124c0,3.754-1.828,5.876-5.354,6.301l8.03,10.608h-4.275l-7.77-10.445h-0.425V40.727z
				 M253.061,27.344c3.329,0,4.993-0.393,4.993-3.199c0-2.873-1.599-3.493-4.993-3.493h-0.687v6.692H253.061z"/>
		</g>
	</g>
	<g>
		<path fill="#DC911B" d="M30.408,13.842h-3.882l-1.139,3.489h-1.674l4.747-14.093l4.745,14.093H31.52L30.408,13.842z
			 M29.847,12.002l-1.002-3.093c-0.11-0.359-0.233-0.853-0.37-1.535c-0.124,0.683-0.247,1.176-0.357,1.535l-1.002,3.093H29.847z"/>
	</g>
	<g>
		<path fill="#DC911B" d="M42.071,25.105l-1.203-3.69l-3.671-0.002l-0.518-1.591l14.869,0.147L39.62,28.847l-0.522-1.603
			L42.071,25.105z M43.646,24.002l2.63-1.91c0.309-0.217,0.738-0.486,1.346-0.829c-0.687,0.095-1.195,0.131-1.571,0.138l-3.25,0.005
			L43.646,24.002z"/>
	</g>
	<g>
		<path fill="#DC911B" d="M17.872,27.256l-0.523,1.604l-11.93-8.879l14.87-0.147l-0.518,1.591l-3.673,0.002l-1.202,3.69
			L17.872,27.256z M14.168,21.419l-3.25-0.007c-0.376-0.007-0.884-0.043-1.571-0.137c0.606,0.343,1.037,0.612,1.346,0.828
			l2.631,1.909L14.168,21.419z"/>
	</g>
	<g>
		<path fill="#DC911B" d="M18.875,37.376l3.14,2.283l2.972-2.154l1.354,0.984l-12.126,8.607l4.449-14.189l1.364,0.992L18.875,37.376
			z M18.246,39.194l-1.008,3.089c-0.122,0.356-0.313,0.827-0.603,1.461c0.5-0.479,0.891-0.806,1.191-1.033l2.628-1.911
			L18.246,39.194z"/>
	</g>
	<g>
		<path fill="#DC911B" d="M36.899,33.89l1.366-0.991l4.44,14.192l-12.12-8.614l1.354-0.983l2.973,2.154l3.141-2.281L36.899,33.89z
			 M36.47,40.789l2.627,1.914c0.3,0.226,0.69,0.554,1.191,1.033c-0.29-0.632-0.479-1.104-0.604-1.461l-1.006-3.089L36.47,40.789z"/>
	</g>
</g>
</svg>
